<mxfile host="app.diagrams.net" modified="2024-05-28T13:18:38.821Z" agent="Mozilla/5.0 (Windows NT 10.0; Win64; x64) AppleWebKit/537.36 (KHTML, like Gecko) Chrome/125.0.0.0 Safari/537.36 Edg/125.0.0.0" etag="JGStowQUTN1q52lCZbhB" version="24.4.0" type="device">
  <diagram name="Страница — 1" id="xslZlt86nr2c5RU8pi_X">
    <mxGraphModel dx="1913" dy="933" grid="1" gridSize="10" guides="1" tooltips="1" connect="1" arrows="1" fold="1" page="1" pageScale="1" pageWidth="827" pageHeight="1169" math="0" shadow="0">
      <root>
        <mxCell id="0" />
        <mxCell id="1" parent="0" />
        <mxCell id="yxDMbggX4UfyO6kXRKJ_-3" style="edgeStyle=orthogonalEdgeStyle;rounded=0;orthogonalLoop=1;jettySize=auto;html=1;" edge="1" parent="1" source="yxDMbggX4UfyO6kXRKJ_-1" target="yxDMbggX4UfyO6kXRKJ_-2">
          <mxGeometry relative="1" as="geometry" />
        </mxCell>
        <mxCell id="yxDMbggX4UfyO6kXRKJ_-1" value="Начало" style="strokeWidth=2;html=1;shape=mxgraph.flowchart.start_1;whiteSpace=wrap;" vertex="1" parent="1">
          <mxGeometry x="350" y="20" width="100" height="60" as="geometry" />
        </mxCell>
        <mxCell id="yxDMbggX4UfyO6kXRKJ_-5" style="edgeStyle=orthogonalEdgeStyle;rounded=0;orthogonalLoop=1;jettySize=auto;html=1;entryX=0.5;entryY=0;entryDx=0;entryDy=0;" edge="1" parent="1" source="yxDMbggX4UfyO6kXRKJ_-2" target="yxDMbggX4UfyO6kXRKJ_-4">
          <mxGeometry relative="1" as="geometry" />
        </mxCell>
        <mxCell id="yxDMbggX4UfyO6kXRKJ_-2" value="Ввод количества строк (n)" style="shape=parallelogram;perimeter=parallelogramPerimeter;whiteSpace=wrap;html=1;fixedSize=1;" vertex="1" parent="1">
          <mxGeometry x="340" y="110" width="120" height="60" as="geometry" />
        </mxCell>
        <mxCell id="yxDMbggX4UfyO6kXRKJ_-7" style="edgeStyle=orthogonalEdgeStyle;rounded=0;orthogonalLoop=1;jettySize=auto;html=1;entryX=0.5;entryY=0;entryDx=0;entryDy=0;" edge="1" parent="1" source="yxDMbggX4UfyO6kXRKJ_-4" target="yxDMbggX4UfyO6kXRKJ_-6">
          <mxGeometry relative="1" as="geometry" />
        </mxCell>
        <mxCell id="yxDMbggX4UfyO6kXRKJ_-4" value="Создание массива inputArray для хранения n строк" style="rounded=0;whiteSpace=wrap;html=1;" vertex="1" parent="1">
          <mxGeometry x="340" y="210" width="120" height="60" as="geometry" />
        </mxCell>
        <mxCell id="yxDMbggX4UfyO6kXRKJ_-9" style="edgeStyle=orthogonalEdgeStyle;rounded=0;orthogonalLoop=1;jettySize=auto;html=1;" edge="1" parent="1" source="yxDMbggX4UfyO6kXRKJ_-6" target="yxDMbggX4UfyO6kXRKJ_-8">
          <mxGeometry relative="1" as="geometry" />
        </mxCell>
        <mxCell id="yxDMbggX4UfyO6kXRKJ_-6" value="Ввод строк в массив inputArray" style="shape=parallelogram;perimeter=parallelogramPerimeter;whiteSpace=wrap;html=1;fixedSize=1;" vertex="1" parent="1">
          <mxGeometry x="340" y="320" width="120" height="60" as="geometry" />
        </mxCell>
        <mxCell id="yxDMbggX4UfyO6kXRKJ_-11" style="edgeStyle=orthogonalEdgeStyle;rounded=0;orthogonalLoop=1;jettySize=auto;html=1;" edge="1" parent="1" source="yxDMbggX4UfyO6kXRKJ_-8" target="yxDMbggX4UfyO6kXRKJ_-10">
          <mxGeometry relative="1" as="geometry" />
        </mxCell>
        <mxCell id="yxDMbggX4UfyO6kXRKJ_-8" value="Подсчет строк длинной &amp;lt;=3 символа" style="rounded=0;whiteSpace=wrap;html=1;" vertex="1" parent="1">
          <mxGeometry x="340" y="420" width="120" height="60" as="geometry" />
        </mxCell>
        <mxCell id="yxDMbggX4UfyO6kXRKJ_-13" style="edgeStyle=orthogonalEdgeStyle;rounded=0;orthogonalLoop=1;jettySize=auto;html=1;entryX=0.5;entryY=0;entryDx=0;entryDy=0;" edge="1" parent="1" source="yxDMbggX4UfyO6kXRKJ_-10" target="yxDMbggX4UfyO6kXRKJ_-12">
          <mxGeometry relative="1" as="geometry" />
        </mxCell>
        <mxCell id="yxDMbggX4UfyO6kXRKJ_-10" value="Создание массива resultArray длиной count&amp;nbsp;" style="rounded=0;whiteSpace=wrap;html=1;" vertex="1" parent="1">
          <mxGeometry x="340" y="510" width="120" height="60" as="geometry" />
        </mxCell>
        <mxCell id="yxDMbggX4UfyO6kXRKJ_-15" style="edgeStyle=orthogonalEdgeStyle;rounded=0;orthogonalLoop=1;jettySize=auto;html=1;" edge="1" parent="1" source="yxDMbggX4UfyO6kXRKJ_-12" target="yxDMbggX4UfyO6kXRKJ_-14">
          <mxGeometry relative="1" as="geometry" />
        </mxCell>
        <mxCell id="yxDMbggX4UfyO6kXRKJ_-12" value="Копирование строк длинной &amp;lt;=3 символа из inputArray в resultArray" style="rounded=0;whiteSpace=wrap;html=1;" vertex="1" parent="1">
          <mxGeometry x="335" y="610" width="130" height="70" as="geometry" />
        </mxCell>
        <mxCell id="yxDMbggX4UfyO6kXRKJ_-14" value="Вывод строк из массива resultArray" style="shape=parallelogram;perimeter=parallelogramPerimeter;whiteSpace=wrap;html=1;fixedSize=1;" vertex="1" parent="1">
          <mxGeometry x="340" y="710" width="120" height="60" as="geometry" />
        </mxCell>
        <mxCell id="yxDMbggX4UfyO6kXRKJ_-16" value="Конец" style="strokeWidth=2;html=1;shape=mxgraph.flowchart.start_1;whiteSpace=wrap;" vertex="1" parent="1">
          <mxGeometry x="350" y="800" width="100" height="60" as="geometry" />
        </mxCell>
        <mxCell id="yxDMbggX4UfyO6kXRKJ_-17" style="edgeStyle=orthogonalEdgeStyle;rounded=0;orthogonalLoop=1;jettySize=auto;html=1;entryX=0.5;entryY=0;entryDx=0;entryDy=0;entryPerimeter=0;" edge="1" parent="1" source="yxDMbggX4UfyO6kXRKJ_-14" target="yxDMbggX4UfyO6kXRKJ_-16">
          <mxGeometry relative="1" as="geometry" />
        </mxCell>
      </root>
    </mxGraphModel>
  </diagram>
</mxfile>
